<svg width="246" height="259" viewBox="0 0 246 259" fill="none" xmlns="http://www.w3.org/2000/svg">
<g opacity="0.5">
<mask id="path-1-outside-1_1878_5819" maskUnits="userSpaceOnUse" x="-50.756" y="-54.6601" width="370.46" height="367.971" fill="black">
<rect fill="white" x="-50.756" y="-54.6601" width="370.46" height="367.971"/>
<path fill-rule="evenodd" clip-rule="evenodd" d="M135.247 62.0435L138.32 95.5206L172.617 0.876329L148.872 109.507L176.816 74.9326L159.99 102.314L240.548 47.4388L157.592 121.745L268.336 123.806L161.148 136.063L202.326 151.84L165.144 142.852L245.2 204.659L156.651 153.369L178.519 185.68L149.625 152.981L179.121 255.524L139.872 165.848L138.078 199.834L134.694 157.167L96.4619 257.636L119.161 159.794L96.5136 186.941L118.788 151.679L28.5353 211.072L111.619 138.542L0.742407 134.707L105.909 124.04L70.9983 110.038L105.247 118.767L23.8821 53.8499L116.237 108.931L94.8127 76.1919L116.587 101.456L89.9565 2.98779L133.601 106.281L135.247 62.0435Z"/>
</mask>
<path d="M138.32 95.5206L137.69 95.5784C137.717 95.8733 137.945 96.1099 138.239 96.1477C138.533 96.1856 138.813 96.0145 138.914 95.736L138.32 95.5206ZM135.247 62.0435L135.877 61.9857C135.846 61.6536 135.563 61.4023 135.23 61.4114C134.896 61.4204 134.627 61.6867 134.615 62.02L135.247 62.0435ZM172.617 0.876329L173.234 1.01135C173.305 0.686051 173.112 0.361351 172.792 0.268871C172.472 0.176403 172.136 0.347841 172.022 0.660895L172.617 0.876329ZM148.872 109.507L148.255 109.372C148.192 109.659 148.334 109.951 148.599 110.078C148.863 110.204 149.18 110.133 149.364 109.905L148.872 109.507ZM176.816 74.9326L177.354 75.2637C177.529 74.9796 177.453 74.6088 177.181 74.4163C176.908 74.2238 176.534 74.2758 176.324 74.5352L176.816 74.9326ZM159.99 102.314L159.451 101.983C159.295 102.237 159.338 102.565 159.554 102.771C159.769 102.977 160.1 103.004 160.346 102.836L159.99 102.314ZM240.548 47.4388L240.97 47.9098C241.218 47.6876 241.251 47.3112 241.046 47.049C240.84 46.7868 240.467 46.7287 240.192 46.9162L240.548 47.4388ZM157.592 121.745L157.17 121.274C156.976 121.448 156.909 121.722 156.999 121.966C157.09 122.209 157.32 122.373 157.58 122.377L157.592 121.745ZM268.336 123.806L268.407 124.434C268.738 124.396 268.983 124.109 268.967 123.776C268.951 123.443 268.68 123.18 268.347 123.174L268.336 123.806ZM161.148 136.063L161.077 135.435C160.787 135.468 160.558 135.695 160.521 135.984C160.484 136.273 160.65 136.549 160.922 136.654L161.148 136.063ZM202.326 151.84L202.178 152.454C202.502 152.533 202.831 152.346 202.93 152.027C203.029 151.709 202.864 151.368 202.552 151.249L202.326 151.84ZM165.144 142.852L165.293 142.238C165.003 142.167 164.703 142.31 164.574 142.579C164.445 142.848 164.522 143.17 164.758 143.353L165.144 142.852ZM245.2 204.659L244.883 205.206C245.171 205.373 245.539 205.288 245.725 205.012C245.91 204.735 245.85 204.362 245.586 204.159L245.2 204.659ZM156.651 153.369L156.968 152.822C156.713 152.674 156.389 152.723 156.188 152.938C155.987 153.154 155.962 153.48 156.127 153.724L156.651 153.369ZM178.519 185.68L178.046 186.098C178.266 186.348 178.643 186.384 178.907 186.179C179.17 185.975 179.23 185.601 179.043 185.325L178.519 185.68ZM149.625 152.981L150.098 152.563C149.903 152.341 149.58 152.285 149.32 152.427C149.061 152.569 148.935 152.872 149.017 153.156L149.625 152.981ZM179.121 255.524L178.542 255.778C178.676 256.083 179.023 256.232 179.336 256.119C179.649 256.006 179.821 255.669 179.729 255.349L179.121 255.524ZM139.872 165.848L140.452 165.594C140.334 165.326 140.048 165.173 139.759 165.225C139.471 165.278 139.256 165.522 139.241 165.814L139.872 165.848ZM138.078 199.834L137.448 199.884C137.474 200.216 137.754 200.471 138.087 200.467C138.42 200.462 138.692 200.2 138.71 199.868L138.078 199.834ZM134.694 157.167L135.325 157.117C135.301 156.823 135.077 156.583 134.784 156.541C134.491 156.499 134.208 156.666 134.103 156.942L134.694 157.167ZM96.4619 257.636L95.8459 257.493C95.7708 257.817 95.9594 258.144 96.2776 258.241C96.5957 258.338 96.9346 258.172 97.0529 257.861L96.4619 257.636ZM119.161 159.794L119.777 159.937C119.843 159.652 119.705 159.359 119.443 159.228C119.18 159.098 118.863 159.164 118.675 159.389L119.161 159.794ZM96.5136 186.941L95.979 186.604C95.8011 186.885 95.8722 187.256 96.1414 187.452C96.4107 187.649 96.7858 187.602 96.9992 187.346L96.5136 186.941ZM118.788 151.679L119.323 152.016C119.482 151.765 119.444 151.436 119.231 151.228C119.019 151.019 118.69 150.987 118.441 151.151L118.788 151.679ZM28.5353 211.072L28.1195 210.595C27.8689 210.814 27.8306 211.189 28.0319 211.454C28.2331 211.719 28.6051 211.783 28.8829 211.6L28.5353 211.072ZM111.619 138.542L112.035 139.018C112.231 138.847 112.302 138.575 112.215 138.33C112.128 138.085 111.9 137.919 111.641 137.91L111.619 138.542ZM0.742407 134.707L0.678597 134.078C0.347708 134.112 0.0993664 134.396 0.110419 134.728C0.121481 135.061 0.388163 135.328 0.720551 135.339L0.742407 134.707ZM105.909 124.04L105.972 124.669C106.262 124.64 106.494 124.417 106.535 124.129C106.575 123.841 106.414 123.562 106.144 123.454L105.909 124.04ZM70.9983 110.038L71.1545 109.426C70.8317 109.343 70.5005 109.526 70.3972 109.842C70.2938 110.159 70.4538 110.501 70.7629 110.625L70.9983 110.038ZM105.247 118.767L105.091 119.38C105.38 119.454 105.681 119.316 105.814 119.049C105.946 118.782 105.875 118.459 105.642 118.273L105.247 118.767ZM23.8821 53.8499L24.206 53.3068C23.9203 53.1364 23.5516 53.2164 23.3622 53.4899C23.1729 53.7633 23.2278 54.1367 23.4877 54.3441L23.8821 53.8499ZM116.237 108.931L115.913 109.474C116.166 109.625 116.489 109.581 116.693 109.369C116.897 109.156 116.927 108.831 116.766 108.585L116.237 108.931ZM94.8127 76.1919L95.2917 75.7791C95.0742 75.5268 94.6984 75.4864 94.4323 75.6867C94.1663 75.8871 94.1012 76.2594 94.2836 76.5381L94.8127 76.1919ZM116.587 101.456L116.108 101.869C116.301 102.093 116.623 102.153 116.883 102.015C117.144 101.876 117.274 101.576 117.197 101.291L116.587 101.456ZM89.9565 2.98779L90.539 2.74167C90.4095 2.43531 90.0649 2.28159 89.7505 2.38998C89.436 2.49837 89.2593 2.83181 89.3461 3.15287L89.9565 2.98779ZM133.601 106.281L133.019 106.527C133.134 106.8 133.424 106.956 133.715 106.903C134.007 106.849 134.222 106.6 134.233 106.304L133.601 106.281ZM138.95 95.4628L135.877 61.9857L134.617 62.1013L137.69 95.5784L138.95 95.4628ZM172.022 0.660895L137.725 95.3051L138.914 95.736L173.211 1.09176L172.022 0.660895ZM149.49 109.643L173.234 1.01135L171.999 0.741305L148.255 109.372L149.49 109.643ZM176.324 74.5352L148.38 109.11L149.364 109.905L177.307 75.3301L176.324 74.5352ZM160.529 102.645L177.354 75.2637L176.277 74.6016L159.451 101.983L160.529 102.645ZM240.192 46.9162L159.634 101.791L160.346 102.836L240.904 47.9614L240.192 46.9162ZM158.014 122.216L240.97 47.9098L240.126 46.9678L157.17 121.274L158.014 122.216ZM268.347 123.174L157.604 121.113L157.58 122.377L268.324 124.438L268.347 123.174ZM161.22 136.691L268.407 124.434L268.264 123.178L161.077 135.435L161.22 136.691ZM202.552 151.249L161.375 135.473L160.922 136.654L202.1 152.43L202.552 151.249ZM164.996 143.467L202.178 152.454L202.475 151.225L165.293 142.238L164.996 143.467ZM245.586 204.159L165.531 142.352L164.758 143.353L244.813 205.16L245.586 204.159ZM156.334 153.917L244.883 205.206L245.517 204.112L156.968 152.822L156.334 153.917ZM179.043 185.325L157.174 153.015L156.127 153.724L177.996 186.034L179.043 185.325ZM149.151 153.4L178.046 186.098L178.993 185.261L150.098 152.563L149.151 153.4ZM179.729 255.349L150.232 152.807L149.017 153.156L178.514 255.699L179.729 255.349ZM139.293 166.101L178.542 255.778L179.701 255.271L140.452 165.594L139.293 166.101ZM138.71 199.868L140.504 165.881L139.241 165.814L137.447 199.801L138.71 199.868ZM134.064 157.217L137.448 199.884L138.709 199.784L135.325 157.117L134.064 157.217ZM97.0529 257.861L135.285 157.392L134.103 156.942L95.8709 257.411L97.0529 257.861ZM118.545 159.651L95.8459 257.493L97.0779 257.779L119.777 159.937L118.545 159.651ZM96.9992 187.346L119.647 160.199L118.675 159.389L96.0281 186.536L96.9992 187.346ZM118.254 151.341L95.979 186.604L97.0482 187.279L119.323 152.016L118.254 151.341ZM28.8829 211.6L119.136 152.207L118.441 151.151L28.1877 210.543L28.8829 211.6ZM111.203 138.065L28.1195 210.595L28.9512 211.548L112.035 139.018L111.203 138.065ZM0.720551 135.339L111.597 139.174L111.641 137.91L0.764262 134.075L0.720551 135.339ZM105.845 123.411L0.678597 134.078L0.806217 135.336L105.972 124.669L105.845 123.411ZM70.7629 110.625L105.673 124.627L106.144 123.454L71.2337 109.451L70.7629 110.625ZM105.404 118.155L71.1545 109.426L70.8421 110.651L105.091 119.38L105.404 118.155ZM23.4877 54.3441L104.853 119.262L105.642 118.273L24.2765 53.3556L23.4877 54.3441ZM116.561 108.388L24.206 53.3068L23.5582 54.3929L115.913 109.474L116.561 108.388ZM94.2836 76.5381L115.708 109.277L116.766 108.585L95.3418 75.8456L94.2836 76.5381ZM117.066 101.043L95.2917 75.7791L94.3337 76.6047L116.108 101.869L117.066 101.043ZM89.3461 3.15287L115.977 101.621L117.197 101.291L90.5669 2.82271L89.3461 3.15287ZM134.184 106.035L90.539 2.74167L89.3741 3.2339L133.019 106.527L134.184 106.035ZM134.615 62.02L132.97 106.257L134.233 106.304L135.879 62.067L134.615 62.02Z" fill="white" mask="url(#path-1-outside-1_1878_5819)"/>
</g>
</svg>
