<svg width="207" height="397" viewBox="0 0 207 397" fill="none" xmlns="http://www.w3.org/2000/svg">
<g opacity="0.8">
<mask id="path-1-outside-1_1878_5829" maskUnits="userSpaceOnUse" x="-255.061" y="-61.1942" width="506.575" height="519.403" fill="black">
<rect fill="white" x="-255.061" y="-61.1942" width="506.575" height="519.403"/>
<path fill-rule="evenodd" clip-rule="evenodd" d="M-60.3394 112.275L-26.8577 152.186L-66.7843 1.38577L-1.06718 160.676L3.97381 91.9704L6.73511 141.696L60.8377 0.671428L20.8445 168.555L163.671 73.3638L38.0193 183.645L104.385 167.362L49.1037 188.76L205.628 196.747L47.579 209.653L103.962 231.477L38.2891 215.364L166.42 319.877L37.2365 240.361L64.9716 285.22L22.9762 233.882L63.0362 395.575L5.51882 250.948L0.660474 305.516L-2.12368 240.943L-64.5811 396.284L-22.8557 230.548L-167.419 323.599L-42.9352 217.128L-99.7533 230.134L-48.4349 210.998L-209.375 200.207L-43.1295 188.767L-99.3262 166.004L-49.2872 178.94L-170.168 77.0848L-23.3613 170.055L-60.3394 112.275Z"/>
</mask>
<path d="M-26.8577 152.186L-27.2711 152.533C-27.1087 152.727 -26.8336 152.782 -26.6092 152.666C-26.3849 152.549 -26.2713 152.293 -26.336 152.048L-26.8577 152.186ZM-60.3394 112.275L-59.9259 111.928C-60.1088 111.71 -60.4296 111.672 -60.6589 111.84C-60.8882 112.009 -60.9473 112.326 -60.7939 112.566L-60.3394 112.275ZM-66.7843 1.38577L-66.2855 1.17995C-66.3939 0.917247 -66.6874 0.783613 -66.9567 0.87437C-67.226 0.965123 -67.3788 1.24918 -67.306 1.5239L-66.7843 1.38577ZM-1.06718 160.676L-1.56606 160.882C-1.47064 161.113 -1.22877 161.248 -0.981717 161.209C-0.734682 161.169 -0.547273 160.965 -0.52897 160.715L-1.06718 160.676ZM3.97381 91.9704L4.51264 91.9405C4.49686 91.6563 4.26317 91.4333 3.9786 91.4308C3.69404 91.4282 3.45641 91.6471 3.43559 91.9309L3.97381 91.9704ZM6.73511 141.696L6.19627 141.726C6.21038 141.98 6.40013 142.189 6.65157 142.229C6.90302 142.268 7.1478 142.127 7.23896 141.889L6.73511 141.696ZM60.8377 0.671428L61.3626 0.796487C61.4285 0.520039 61.2687 0.23989 60.9972 0.155884C60.7257 0.0718734 60.4356 0.212801 60.3338 0.47813L60.8377 0.671428ZM20.8445 168.555L20.3195 168.43C20.2681 168.646 20.354 168.871 20.5361 168.998C20.7181 169.125 20.9592 169.128 21.1438 169.004L20.8445 168.555ZM163.671 73.3638L164.027 73.7694C164.241 73.582 164.273 73.261 164.1 73.0355C163.927 72.8099 163.609 72.7571 163.372 72.9147L163.671 73.3638ZM38.0193 183.645L37.6633 183.239C37.4764 183.403 37.4258 183.674 37.5407 183.894C37.6556 184.115 37.9064 184.228 38.1479 184.169L38.0193 183.645ZM104.385 167.362L104.58 167.865C104.845 167.762 104.985 167.471 104.9 167.2C104.814 166.928 104.533 166.77 104.256 166.838L104.385 167.362ZM49.1037 188.76L48.9088 188.256C48.6714 188.348 48.5305 188.594 48.5708 188.845C48.6112 189.097 48.8218 189.286 49.0761 189.298L49.1037 188.76ZM205.628 196.747L205.672 197.285C205.955 197.262 206.172 197.023 206.167 196.739C206.163 196.454 205.939 196.222 205.655 196.208L205.628 196.747ZM47.579 209.653L47.5351 209.115C47.2843 209.136 47.081 209.327 47.0449 209.576C47.0088 209.825 47.1496 210.065 47.3842 210.156L47.579 209.653ZM103.962 231.477L103.833 232.001C104.11 232.069 104.391 231.91 104.477 231.639C104.562 231.367 104.422 231.076 104.157 230.973L103.962 231.477ZM38.2891 215.364L38.4177 214.84C38.1726 214.78 37.9186 214.898 37.8061 215.124C37.6935 215.349 37.7525 215.623 37.948 215.783L38.2891 215.364ZM166.42 319.877L166.137 320.336C166.379 320.485 166.695 320.421 166.859 320.189C167.024 319.958 166.981 319.638 166.761 319.458L166.42 319.877ZM37.2365 240.361L37.5194 239.901C37.3064 239.77 37.0312 239.803 36.8545 239.98C36.6779 240.157 36.646 240.432 36.7775 240.645L37.2365 240.361ZM64.9716 285.22L64.5538 285.562C64.7338 285.782 65.0536 285.824 65.285 285.659C65.5164 285.494 65.5801 285.178 65.4306 284.936L64.9716 285.22ZM22.9762 233.882L23.3939 233.54C23.2341 233.345 22.9603 233.287 22.7346 233.4C22.5089 233.513 22.3917 233.767 22.4524 234.012L22.9762 233.882ZM63.0362 395.575L62.5348 395.775C62.6396 396.039 62.9309 396.176 63.2012 396.089C63.4715 396.002 63.6283 395.721 63.56 395.446L63.0362 395.575ZM5.51882 250.948L6.02029 250.748C5.92793 250.516 5.68822 250.378 5.44092 250.414C5.19363 250.45 5.00345 250.651 4.98128 250.9L5.51882 250.948ZM0.660474 305.516L0.121306 305.539C0.133559 305.823 0.363968 306.049 0.648146 306.056C0.93231 306.062 1.1728 305.847 1.19802 305.564L0.660474 305.516ZM-2.12368 240.943L-1.58451 240.919C-1.59546 240.666 -1.78209 240.454 -2.0326 240.411C-2.2831 240.368 -2.52958 240.506 -2.62439 240.741L-2.12368 240.943ZM-64.5811 396.284L-65.1045 396.152C-65.1738 396.427 -65.018 396.709 -64.7481 396.797C-64.4781 396.885 -64.1863 396.748 -64.0804 396.485L-64.5811 396.284ZM-22.8557 230.548L-22.3323 230.68C-22.2783 230.465 -22.3609 230.239 -22.5409 230.11C-22.7208 229.981 -22.9615 229.975 -23.1478 230.094L-22.8557 230.548ZM-167.419 323.599L-167.77 323.189C-167.986 323.374 -168.022 323.694 -167.852 323.922C-167.683 324.149 -167.366 324.207 -167.127 324.053L-167.419 323.599ZM-42.9352 217.128L-42.5844 217.538C-42.3957 217.376 -42.3415 217.107 -42.4532 216.885C-42.5648 216.663 -42.8135 216.546 -43.0557 216.602L-42.9352 217.128ZM-99.7533 230.134L-99.9418 229.629C-100.208 229.728 -100.352 230.017 -100.27 230.289C-100.189 230.562 -99.9099 230.724 -99.6328 230.66L-99.7533 230.134ZM-48.4349 210.998L-48.2463 211.503C-48.008 211.415 -47.8641 211.171 -47.9009 210.92C-47.9376 210.668 -48.145 210.476 -48.3988 210.459L-48.4349 210.998ZM-209.375 200.207L-209.412 199.669C-209.695 199.688 -209.915 199.924 -209.914 200.208C-209.914 200.491 -209.694 200.727 -209.411 200.746L-209.375 200.207ZM-43.1295 188.767L-43.0924 189.306C-42.8417 189.288 -42.6361 189.1 -42.5965 188.852C-42.557 188.604 -42.6939 188.361 -42.9268 188.267L-43.1295 188.767ZM-99.3262 166.004L-99.1911 165.482C-99.4663 165.41 -99.7495 165.565 -99.8386 165.835C-99.9277 166.105 -99.7922 166.397 -99.5288 166.504L-99.3262 166.004ZM-49.2872 178.94L-49.4223 179.462C-49.1783 179.525 -48.9232 179.411 -48.8076 179.187C-48.6921 178.963 -48.7468 178.689 -48.9394 178.527L-49.2872 178.94ZM-170.168 77.0848L-169.879 76.6289C-170.119 76.477 -170.435 76.5369 -170.603 76.7659C-170.771 76.9948 -170.733 77.3146 -170.516 77.4975L-170.168 77.0848ZM-23.3613 170.055L-23.65 170.511C-23.4363 170.646 -23.1572 170.615 -22.9788 170.436C-22.8003 170.256 -22.7704 169.977 -22.9067 169.764L-23.3613 170.055ZM-26.4443 151.84L-59.9259 111.928L-60.7528 112.622L-27.2711 152.533L-26.4443 151.84ZM-67.306 1.5239L-27.3794 152.325L-26.336 152.048L-66.2627 1.24764L-67.306 1.5239ZM-0.568301 160.47L-66.2855 1.17995L-67.2832 1.59159L-1.56606 160.882L-0.568301 160.47ZM3.43559 91.9309L-1.60539 160.636L-0.52897 160.715L4.51202 92.0099L3.43559 91.9309ZM7.27395 141.666L4.51264 91.9405L3.43497 92.0003L6.19627 141.726L7.27395 141.666ZM60.3338 0.47813L6.23126 141.502L7.23896 141.889L61.3415 0.864727L60.3338 0.47813ZM21.3695 168.68L61.3626 0.796487L60.3127 0.546369L20.3195 168.43L21.3695 168.68ZM163.372 72.9147L20.5452 168.106L21.1438 169.004L163.971 73.8129L163.372 72.9147ZM38.3753 184.05L164.027 73.7694L163.315 72.9582L37.6633 183.239L38.3753 184.05ZM104.256 166.838L37.8907 183.12L38.1479 184.169L104.513 167.886L104.256 166.838ZM49.2985 189.263L104.58 167.865L104.19 166.858L48.9088 188.256L49.2985 189.263ZM205.655 196.208L49.1312 188.221L49.0761 189.298L205.6 197.286L205.655 196.208ZM47.6229 210.191L205.672 197.285L205.584 196.209L47.5351 209.115L47.6229 210.191ZM104.157 230.973L47.7738 209.15L47.3842 210.156L103.767 231.98L104.157 230.973ZM38.1605 215.889L103.833 232.001L104.091 230.953L38.4177 214.84L38.1605 215.889ZM166.761 319.458L38.6302 214.946L37.948 215.783L166.078 320.295L166.761 319.458ZM36.9536 240.82L166.137 320.336L166.702 319.417L37.5194 239.901L36.9536 240.82ZM65.4306 284.936L37.6955 240.077L36.7775 240.645L64.5125 285.504L65.4306 284.936ZM22.5585 234.224L64.5538 285.562L65.3893 284.878L23.3939 233.54L22.5585 234.224ZM63.56 395.446L23.5001 233.752L22.4524 234.012L62.5124 395.705L63.56 395.446ZM5.01735 251.147L62.5348 395.775L63.5377 395.376L6.02029 250.748L5.01735 251.147ZM1.19802 305.564L6.05636 250.996L4.98128 250.9L0.122932 305.468L1.19802 305.564ZM-2.66285 240.966L0.121306 305.539L1.19964 305.493L-1.58451 240.919L-2.66285 240.966ZM-64.0804 396.485L-1.62297 241.144L-2.62439 240.741L-65.0819 396.082L-64.0804 396.485ZM-23.379 230.416L-65.1045 396.152L-64.0578 396.415L-22.3323 230.68L-23.379 230.416ZM-167.127 324.053L-22.5636 231.002L-23.1478 230.094L-167.711 323.146L-167.127 324.053ZM-43.286 216.718L-167.77 323.189L-167.069 324.01L-42.5844 217.538L-43.286 216.718ZM-99.6328 230.66L-42.8148 217.654L-43.0557 216.602L-99.8737 229.608L-99.6328 230.66ZM-48.6234 210.492L-99.9418 229.629L-99.5647 230.64L-48.2463 211.503L-48.6234 210.492ZM-209.411 200.746L-48.471 211.536L-48.3988 210.459L-209.339 199.669L-209.411 200.746ZM-43.1665 188.229L-209.412 199.669L-209.338 200.746L-43.0924 189.306L-43.1665 188.229ZM-99.5288 166.504L-43.3321 189.267L-42.9268 188.267L-99.1236 165.504L-99.5288 166.504ZM-49.1521 178.417L-99.1911 165.482L-99.4612 166.527L-49.4223 179.462L-49.1521 178.417ZM-170.516 77.4975L-49.6349 179.352L-48.9394 178.527L-169.82 76.6721L-170.516 77.4975ZM-23.0725 169.599L-169.879 76.6289L-170.457 77.5407L-23.65 170.511L-23.0725 169.599ZM-60.7939 112.566L-23.8158 170.346L-22.9067 169.764L-59.8848 111.984L-60.7939 112.566Z" fill="white" mask="url(#path-1-outside-1_1878_5829)"/>
</g>
</svg>
