<svg width="149" height="62" viewBox="0 0 149 62" fill="none" xmlns="http://www.w3.org/2000/svg">
<path fill-rule="evenodd" clip-rule="evenodd" d="M31.5742 25.6089C31.5713 25.5213 31.5684 25.4338 31.5653 25.3462C31.4709 23.1104 31.4106 20.8739 31.3514 18.6369C31.3527 18.4565 31.3574 18.2749 31.3622 18.0927C31.3764 17.5486 31.3908 16.9993 31.3126 16.4641C31.2218 15.9652 30.962 15.7282 30.3129 15.8522C29.432 16.062 28.7144 15.7765 28.5656 14.7907C28.2025 13.1815 29.9146 12.0474 31.0443 11.3018C32.9369 10.0404 35.1623 8.86378 37.4092 8.43074C38.4976 8.2044 39.2806 8.78927 39.4656 9.87101C39.7943 11.6718 39.8672 13.5875 39.7181 15.4105C39.6171 16.4287 39.4578 17.439 39.2984 18.4491L39.2984 18.4493C39.1323 19.5025 38.9662 20.5555 38.8663 21.6171C38.8148 22.3291 39.2177 22.2079 39.6999 22.0546C40.1943 21.8355 40.8073 21.9238 40.6822 22.6439C40.6929 25.5495 37.6932 28.64 35.0041 29.3609C33.6248 29.7472 32.0193 28.9949 31.7269 27.5357C31.6169 26.8982 31.5956 26.2539 31.5742 25.6092L31.5742 25.6089ZM39.4344 1.68805C39.9597 4.75601 35.0666 7.39558 32.5913 7.71039C31.3457 7.87236 29.0231 7.94398 28.7833 6.24273C28.1622 2.93897 33.3048 0.588103 35.8424 0.100335C37.1562 -0.163797 39.1803 0.0351516 39.4344 1.68805ZM11.2384 14.4707L11.2384 14.4707C11.3761 14.9888 11.5133 15.5054 11.6675 16.0114C11.8941 16.7987 12.1212 17.5835 12.349 18.3657C12.3627 18.4244 12.3772 18.4982 12.3936 18.5816C12.4977 19.1111 12.6779 20.0284 13.2208 19.9406C13.7332 19.5373 14.0723 18.8169 14.3895 18.1432C14.5411 17.8211 14.6877 17.5096 14.8459 17.2485C15.7242 15.8009 16.84 14.3861 18.4016 13.6433C20.6736 12.5618 23.0559 13.0613 24.1705 15.4515C24.8792 16.9417 25.2636 18.543 25.6477 20.1432L25.6477 20.1432C26.0063 21.6374 26.3648 23.1306 26.9868 24.5315C27.2628 25.3381 27.8265 25.2245 28.3825 25.1124C28.9282 25.0024 29.4664 24.8939 29.7178 25.6582C30.3272 27.2496 29.0726 29.0838 28.1293 30.2593C27.1002 31.5396 25.7533 32.9042 24.2054 33.5383C22.5298 34.2292 21.1171 33.764 20.3653 32.072C19.6759 30.5896 19.3665 28.9811 19.0576 27.3743L19.0576 27.3743C18.7556 25.8039 18.4539 24.2352 17.798 22.7877C17.5161 22.1163 16.8448 21.465 16.0756 21.7881C14.4206 22.5927 14.904 25.3539 15.1604 26.7741C15.4771 28.532 16.0258 30.2248 16.5836 31.9172C16.6141 32.0058 16.6458 32.0958 16.678 32.187L16.678 32.1871L16.678 32.1871C16.994 33.0841 17.3511 34.098 17.0556 35.0228C16.5174 36.5464 14.8871 38.0401 13.4503 38.7165C12.1319 39.3453 10.0977 39.7656 9.38276 38.0486C9.0252 37.2378 8.82601 36.3675 8.62725 35.4992C8.51216 34.9963 8.39721 34.4941 8.25175 34.0045C7.73814 32.3227 7.3109 30.5975 6.8827 28.8684C6.06946 25.5845 5.25272 22.2864 3.83417 19.2449C3.57149 18.5492 3.04395 18.1651 2.31614 18.4933C1.53881 18.8424 0.636912 19.195 0.212893 18.149C-0.601968 16.5771 1.16158 14.8732 2.19066 13.9298C3.64955 12.5919 5.185 11.3983 6.95848 10.5064C8.08695 9.96642 9.53223 9.62565 10.1198 11.0843C10.6234 12.1552 10.9319 13.3169 11.2384 14.4707ZM49.362 22.1515L49.297 22.1537C48.5858 22.1778 46.7104 22.2413 47.2672 21.0592C47.4695 20.6414 47.8762 20.2884 48.352 20.2523C48.7367 20.2783 49.1143 20.3324 49.492 20.3864C49.9651 20.4542 50.4384 20.522 50.9261 20.5347C53.4302 20.5312 55.9593 20.0608 58.3541 19.347C61.3239 18.462 64.7636 17.0092 66.5592 14.34C67.1921 13.1869 66.9728 12.5868 66.6271 11.641C66.5701 11.4849 66.5096 11.3193 66.449 11.1404C66.5486 10.8167 66.717 10.5502 66.8841 10.2855C67.1228 9.90772 67.359 9.5337 67.3897 9.00247C67.402 7.72733 66.2417 6.22022 64.9378 6.08562C64.1659 6.03927 63.6922 6.60678 63.2024 7.19371C62.6754 7.82509 62.1297 8.47894 61.1739 8.4153C60.5056 8.35413 59.8612 8.26087 59.197 8.14667C58.5329 8.03246 57.8885 7.93921 57.2202 7.87803C54.7282 7.72556 52.0731 8.23164 49.8727 9.43257C47.5436 10.7036 46.2414 12.7859 45.4049 15.252C44.9924 16.5702 44.7581 17.7933 45.4285 19.0682C45.4455 19.1007 45.4626 19.1297 45.4786 19.157L45.4786 19.157C45.564 19.3023 45.6189 19.3956 45.4722 19.6876C45.2808 20.0681 44.9811 20.1831 44.6811 20.2981C44.6256 20.3193 44.5702 20.3406 44.5155 20.3635C43.0564 20.9657 41.7689 22.1924 41.5909 23.825C41.5281 24.7264 41.8551 25.2653 42.2018 25.8367C42.4056 26.1726 42.6163 26.5199 42.7585 26.9586C42.7868 27.3372 42.6698 27.6598 42.5513 27.9868C42.4025 28.3972 42.2512 28.8147 42.3812 29.3588C43.3312 33.4395 48.7753 34.3782 52.2877 34.5802C54.5266 34.6979 57.1225 34.5188 59.0858 33.3244C61.4408 31.8913 61.1097 29.2228 60.1171 27.0046C58.9394 24.448 57.053 22.2205 54.0591 22.0795C52.494 22.0655 50.9282 22.0854 49.362 22.1515ZM52.8937 17.6998C51.8832 17.8131 52.4534 16.8569 52.7881 16.4873C53.6277 15.4942 54.4012 14.4468 55.1035 13.3518C55.1911 13.2148 55.28 13.0639 55.3724 12.9069C55.8745 12.0545 56.4799 11.0264 57.548 11.1047C58.4019 11.0826 58.9202 11.8986 58.6037 12.6785C57.8863 14.7353 55.2321 17.6447 52.8937 17.6988L52.8937 17.6998ZM50.5149 31.3368C48.8954 31.2629 46.5366 30.8141 45.9465 29.0443C45.8733 28.8253 45.7064 28.3025 45.9467 28.2601C46.4583 28.2703 46.9739 28.3825 47.4837 28.4935C47.7489 28.5513 48.0125 28.6087 48.2733 28.6512C49.5708 28.8616 50.8377 28.9441 52.1498 28.8029C52.668 28.7274 53.1172 29.1435 53.3313 29.578C54.2325 31.1755 51.4357 31.3729 50.5148 31.3358L50.5149 31.3368ZM83.0263 8.57045C82.618 10.2164 81.8655 11.8675 81.0768 13.3619C80.6751 14.108 80.2106 14.8147 79.7272 15.5124C79.6841 15.5673 79.6216 15.6381 79.5496 15.7197C79.1842 16.1336 78.5718 16.8271 78.9776 17.1604C79.7572 17.2025 80.6255 16.8815 81.438 16.581C81.7947 16.4491 82.1407 16.3212 82.4637 16.2298C84.1912 15.7408 86.0617 15.3237 87.8475 15.7478C90.296 16.3294 91.9022 18.1993 91.2539 20.783C90.8766 22.3357 90.1539 23.7545 89.4323 25.1712C88.7052 26.5987 87.9791 28.0241 87.6088 29.5821C87.3906 30.4147 87.9261 30.6807 88.4467 30.9393C88.9606 31.1946 89.4599 31.4427 89.2052 32.2214C88.7064 33.8529 86.5787 34.4973 85.1051 34.8195C83.4629 35.179 81.5227 35.3754 79.8869 34.8851C78.0272 34.3367 76.8951 33.0275 76.8272 31.0557C76.7811 29.3833 77.289 27.7107 77.9803 26.2057C78.272 25.5702 78.6341 24.9684 78.996 24.3669C79.4417 23.6264 79.887 22.8864 80.2001 22.0845C80.4633 21.4158 80.4484 20.3764 79.5335 20.2404C77.5257 19.781 75.411 21.7046 74.2964 23.1547C73.1688 24.6214 72.7157 26.35 72.5794 28.168C72.5691 28.3329 72.5655 28.5144 72.5616 28.705C72.5443 29.5601 72.5233 30.5966 71.8809 31.1332C70.5286 32.1793 68.0436 32.0538 66.4847 31.676C64.4994 31.1856 62.1317 30.107 61.4913 27.9694C61.1067 26.5614 61.3632 25.0856 61.7709 23.7172C62.4069 21.5785 64.5391 19.9767 66.391 18.5856C66.8078 18.2725 67.2104 17.9701 67.5786 17.6746C67.6339 17.6302 67.6894 17.5856 67.7452 17.5408C69.8894 15.8201 72.4008 13.8046 73.0257 10.9936C73.2247 10.2723 73.1097 9.65748 72.3102 9.45797C71.4866 9.24321 70.5618 8.95301 70.8846 7.87172C71.2961 6.13203 73.6137 5.91706 75.0631 5.8198C77.0369 5.69168 78.9811 5.72276 80.9205 6.13829C82.1455 6.43033 83.4688 7.05175 83.0263 8.57045Z" fill="#4A0A7D"/>
<path fill-rule="evenodd" clip-rule="evenodd" d="M139.377 50.4389C139.414 50.4175 139.45 50.397 139.484 50.3775C140.741 49.6565 142.017 48.9891 143.331 48.3762C145.222 47.5877 147.427 48.262 148.314 50.1696C150.179 54.0926 145.702 57.592 142.62 59.0605C140.583 60.0292 136.039 61.8323 134.657 59.0075C134.431 58.5558 134.516 58.2049 134.602 57.8461C134.662 57.599 134.722 57.3482 134.683 57.058C134.417 56.771 134.107 56.6057 133.799 56.4422C133.348 56.2021 132.904 55.9658 132.62 55.3534C131.992 54.0339 132.714 52.6404 133.383 51.4991C133.413 51.4523 133.445 51.4064 133.477 51.3605C133.67 51.0849 133.862 50.8094 133.693 50.3437C133.564 49.994 133.429 49.9369 133.224 49.8503C133.183 49.8332 133.14 49.815 133.094 49.7931C131.31 48.957 130.534 47.3623 129.927 45.5711L129.905 45.4977C129.351 43.5844 128.037 39.0507 130.156 37.6587C131.133 37.017 132.692 37.1169 134.015 37.2017C134.421 37.2277 134.804 37.2523 135.142 37.2537C135.344 37.2546 135.546 37.2569 135.748 37.2592C136.062 37.2628 136.376 37.2664 136.69 37.2647C137.203 37.272 137.715 37.2357 138.221 37.1563C138.993 37.0256 139.154 36.4825 139.318 35.9276C139.45 35.483 139.584 35.0309 140.036 34.7774C140.981 34.3455 142.362 35.0019 142.827 35.8785C142.93 36.2295 142.926 36.5301 142.921 36.8337C142.918 37.0591 142.915 37.2863 142.956 37.537C143.149 37.7055 143.343 37.851 143.531 37.9921C144.053 38.3836 144.531 38.7416 144.819 39.4651C146.328 43.7793 143.145 46.5426 139.557 48.2664C139.13 48.4588 138.686 48.604 138.242 48.7488C137.795 48.8948 137.348 49.0406 136.922 49.2341C136.534 49.4841 136.466 50.1331 136.638 50.5215C137.11 51.7352 138.585 50.8919 139.377 50.4389ZM136.637 43.6899C136.812 44.2873 137.294 45.2611 138.095 44.8825C139.725 44.2983 138.397 40.8939 137.932 39.7023C137.915 39.6589 137.899 39.6184 137.885 39.5811C137.682 38.9837 137.089 38.6976 136.484 38.7059C134.774 38.5499 135.995 41.91 136.485 43.2588C136.553 43.4463 136.607 43.595 136.637 43.6899ZM137.708 57.2848C138.348 58.5173 140.418 57.6604 141.315 57.2358L141.315 57.2358C142.044 56.8793 144.051 55.8302 143.559 54.7399C143.388 54.3792 143.018 54.3857 142.74 54.5856C141.748 55.2375 140.68 55.5997 139.604 55.9644C138.965 56.1812 138.323 56.3989 137.693 56.679C137.485 56.813 137.641 57.143 137.707 57.2827L137.708 57.2848ZM66.3143 46.6342C66.258 46.6001 66.1956 46.5631 66.1286 46.5235C65.3825 46.0824 64.079 45.3116 64.57 44.3877C64.6178 44.3081 64.6812 44.2389 64.7562 44.1842C64.8312 44.1296 64.9165 44.0906 65.0068 44.0695C65.0972 44.0485 65.1909 44.0458 65.2823 44.0617C65.3737 44.0775 65.461 44.1116 65.539 44.1619C65.8591 44.3952 66.1633 44.6434 66.4675 44.8915L66.4675 44.8915L66.4675 44.8915L66.4676 44.8915L66.4676 44.8915C66.8852 45.2321 67.3026 45.5726 67.7602 45.8741C71.1918 48.0182 75.7514 48.8345 78.4708 45.1442C78.9382 44.3737 79.0059 43.781 79.0897 43.0472L79.0898 43.0471C79.1107 42.8636 79.1327 42.6712 79.1622 42.465C79.3433 42.3105 79.5433 42.1986 79.7409 42.0881C80.0726 41.9026 80.3978 41.7208 80.6165 41.347C81.1137 40.4826 80.8748 38.9822 80.0248 38.4087C79.4917 38.1073 78.9555 38.3105 78.4038 38.5195C77.8097 38.7446 77.1975 38.9766 76.552 38.5924C76.1119 38.309 75.6904 37.9976 75.2902 37.6601C74.8903 37.3222 74.4688 37.0108 74.0285 36.7277C70.8697 34.7591 65.646 33.8781 63.3479 37.5844C62.6406 38.8678 62.5911 39.8571 62.9761 41.259C62.9902 41.3035 63.0045 41.3443 63.018 41.3825L63.018 41.3825L63.018 41.3825C63.0863 41.5764 63.1317 41.7051 62.9961 41.923C62.8175 42.2119 62.5427 42.1519 62.2654 42.0914L62.2654 42.0914L62.2654 42.0914L62.2654 42.0914C62.2155 42.0805 62.1656 42.0696 62.1161 42.0607C60.8658 41.8449 59.4394 42.1206 58.7255 43.2725C58.4404 43.8586 58.3071 44.3072 58.346 44.9562C58.3529 45.0714 58.3701 45.1826 58.3872 45.2924C58.4201 45.5042 58.4522 45.7109 58.4071 45.9317C58.1956 46.1388 57.9386 46.2235 57.6823 46.308C57.3327 46.4232 56.9845 46.538 56.755 46.9623C55.0187 49.5731 59.1834 52.5647 61.0099 53.7064C63.9033 55.5101 69.2683 57.3994 71.5551 53.7055C72.7074 51.8815 71.7655 49.8513 70.0445 48.8191L66.3143 46.6342ZM69.0163 43.5121C68.4034 43.1942 68.3547 42.5219 68.7835 42.0282C68.8364 41.955 68.8954 41.8718 68.9598 41.781C69.794 40.6049 71.5438 38.138 73.0388 39.0773C73.6583 39.4122 73.6541 40.1208 73.2132 40.5972C73.1226 40.7111 73.0155 40.854 72.8943 41.0155C72.0101 42.1944 70.3817 44.3656 69.0164 43.5101L69.0163 43.5121ZM61.8406 51.621C60.9996 51.0938 59.1619 49.8119 59.8517 48.6067C59.9326 48.4763 60.1286 48.1638 60.3517 48.2674C60.9268 48.6474 61.4559 49.0708 61.9828 49.4924L61.9828 49.4924C62.8701 50.2025 63.7513 50.9075 64.8354 51.3922C65.1543 51.5189 65.3591 51.8281 65.1485 52.1664C64.5005 53.1683 62.5342 52.0423 61.8407 51.6195L61.8406 51.621ZM82.2441 52.9504C81.65 52.7793 81.8003 52.0337 81.9416 51.5936C82.3729 50.2799 83.364 49.104 84.323 48.1386C85.0443 47.4126 86.3067 46.147 87.4593 46.3738C87.9339 46.4882 87.8638 47.1244 87.7421 47.5112C87.3537 48.7886 86.3156 49.9673 85.431 50.9259C85.3933 50.9667 85.3541 51.0094 85.3135 51.0536C84.5808 51.8517 83.3906 53.148 82.2441 52.9504ZM93.6907 43.9197C92.8743 43.7812 92.0411 44.0592 91.2693 44.3168L91.2683 44.3171L91.2665 44.3177C91.1911 44.3428 91.1164 44.3678 91.0423 44.3921L90.9902 44.4119C90.6741 44.5322 90.1083 44.7476 89.8095 44.6804C89.4395 44.576 89.1769 44.265 88.9256 43.9674L88.9255 43.9674C88.83 43.8543 88.7362 43.7431 88.6386 43.6459C88.0519 43.0623 87.3428 42.6577 86.5251 42.4974C81.3379 41.32 76.7786 46.0261 75.1204 50.4779C74.285 52.7173 74.6568 55.6198 77.2653 56.4014C78.558 56.8082 79.8671 56.6644 81.124 56.201C81.3181 56.1293 81.5276 56.0257 81.7452 55.9181C82.2533 55.6668 82.8052 55.394 83.3049 55.4558C83.685 55.6395 83.5801 56.0952 83.489 56.4906C83.4576 56.6271 83.4278 56.7564 83.4202 56.8649C83.3595 57.8137 83.8618 58.4026 84.7762 58.6763C86.5171 59.1935 91.078 59.1689 91.7985 56.9844C91.9495 56.5171 91.724 56.2179 91.3052 56.0174C91.2699 56.0024 91.2358 55.9885 91.2032 55.9753C90.9484 55.8717 90.78 55.8032 90.7769 55.4593C90.797 54.8953 91.0256 54.3548 91.2456 53.8346L91.2457 53.8341C91.2818 53.7489 91.3176 53.6642 91.3522 53.5801C91.6736 52.8057 92.0142 52.0426 92.3542 51.2807L92.3543 51.2806C93.1872 49.4144 94.0165 47.5563 94.5507 45.561C94.7948 44.7669 94.565 44.0399 93.6907 43.9197ZM99.3366 55.3073C99.3077 55.769 99.3449 56.5283 99.9633 56.5481C101.117 56.4818 101.977 54.8793 102.482 53.9385L102.556 53.8004C103.299 52.4218 103.909 50.9252 103.868 49.3288C103.874 48.892 103.834 47.8472 103.245 47.7897C102.288 48.0467 101.65 49.4788 101.168 50.5619L101.168 50.562C101.032 50.866 100.909 51.1425 100.795 51.3578L100.732 51.4754C100.101 52.6589 99.4143 53.9456 99.3366 55.3073ZM106.194 42.6254C106.815 41.9112 107.518 41.1024 108.48 40.938C109.689 40.6986 109.758 42.2654 109.794 43.0787L109.796 43.1217C109.842 47.1236 109.488 50.9655 108.944 54.9145C108.932 55.0006 108.919 55.0873 108.906 55.1744L108.906 55.1749L108.906 55.1749C108.82 55.7378 108.732 56.3189 108.848 56.8777C108.935 57.2102 109.115 57.2352 109.387 57.2729C109.422 57.2778 109.459 57.2829 109.497 57.2889C109.952 57.38 110.244 57.614 110.213 58.1042C110.04 60.4018 105.645 61.5439 103.822 61.4743C102.879 61.45 102.223 60.9733 102.062 60.0531C102.045 59.9558 102.042 59.8302 102.038 59.695C102.029 59.2849 102.017 58.786 101.604 58.7162C101.104 58.7853 100.644 59.1785 100.216 59.5445C100.03 59.7029 99.8506 59.8563 99.6765 59.976C98.571 60.7313 97.3366 61.1985 95.9822 61.121C93.2622 61.006 92.1891 58.2847 92.4491 55.9079C92.7628 53.1108 93.9691 50.7026 95.4043 48.3246C96.7572 46.0826 98.5399 43.3903 101.122 42.4563C101.95 42.0889 102.777 42.347 103.457 42.8719C103.581 42.968 103.707 43.0964 103.837 43.2297C104.152 43.5511 104.495 43.9012 104.915 43.8982C105.338 43.7444 105.64 43.3366 105.907 42.9752C105.943 42.9261 105.979 42.878 106.014 42.8314C106.074 42.7641 106.133 42.6952 106.194 42.6254ZM122.74 52.4226C122.765 53.0174 122.758 53.6186 122.751 54.2211C122.737 55.3955 122.724 56.5748 122.949 57.7209C123.177 59.013 124.278 59.5741 125.506 59.3199C127.348 58.9333 131.549 57.0445 131.088 54.6083C131.02 54.085 130.618 54.0138 130.214 53.9423C129.805 53.87 129.394 53.7973 129.328 53.2558C128.942 51.1095 128.838 48.9221 128.735 46.7331L128.735 46.733L128.735 46.7329C128.634 44.5936 128.532 42.4528 128.167 40.3474C127.677 38.0699 126.282 36.5038 123.9 36.2322C122.336 36.0533 121.278 37.1982 120.568 38.4566C120.369 38.8089 120.205 39.2677 120.034 39.7436C119.734 40.5813 119.415 41.472 118.856 41.9273C118.31 41.9634 118.094 40.9669 117.863 39.9011C117.558 38.495 117.228 36.9684 116.077 37.5334C113.869 38.64 112.351 41.6842 111.447 43.8542C110.84 45.1907 110.357 46.7157 110.588 48.195C110.595 48.226 110.602 48.2592 110.61 48.2943C110.731 48.8431 110.948 49.8336 111.695 49.5324C111.777 49.4989 111.83 49.4767 111.893 49.4499L111.987 49.4105C112.73 49.1062 113.021 50.1593 113.085 50.6833C113.409 52.2801 113.372 53.8974 113.334 55.5099C113.299 57.0245 113.264 58.535 113.528 60.0206C113.739 61.2758 114.998 61.4302 116.03 61.1615L116.158 61.1303C117.34 60.8422 118.857 60.4726 119.601 59.4398C120.302 58.4649 120.159 57.0818 120.042 55.954L120.038 55.9112C119.904 54.4967 119.851 53.0758 119.878 51.6552C119.882 51.469 119.88 51.2478 119.878 51.0024L119.878 51.0022C119.865 49.4045 119.844 46.7826 121.151 46.1181C121.961 45.9124 122.218 47.2299 122.304 47.7681L122.327 47.9972L122.327 47.9989C122.476 49.4708 122.626 50.9452 122.74 52.4226Z" fill="#4A0A7D"/>
</svg>
