<?xml version="1.0" standalone="no"?>
<!DOCTYPE svg PUBLIC "-//W3C//DTD SVG 20010904//EN"
 "http://www.w3.org/TR/2001/REC-SVG-20010904/DTD/svg10.dtd">
<svg version="1.0" xmlns="http://www.w3.org/2000/svg"
 width="353.000000pt" height="353.000000pt" viewBox="0 0 353.000000 353.000000"
 preserveAspectRatio="xMidYMid meet">
<metadata>
Created by potrace 1.14, written by Peter Selinger 2001-2017
</metadata>
<g transform="translate(0.000000,353.000000) scale(0.100000,-0.100000)"
fill="#000000" stroke="none">
<path d="M1779 3505 c5 -16 18 -59 30 -94 15 -50 19 -86 17 -155 -3 -104 -22
-155 -126 -343 -33 -59 -69 -138 -81 -175 -23 -79 -32 -79 -84 -9 -44 61 -68
117 -101 239 -14 53 -29 102 -32 107 -4 6 -7 15 -8 22 -1 6 -17 41 -35 78 -38
78 -114 152 -202 196 -68 35 -70 41 21 -71 53 -66 78 -113 93 -177 10 -46 13
-175 5 -238 -20 -161 -25 -246 -16 -294 11 -61 4 -64 -61 -30 -71 38 -112 77
-187 177 -145 193 -255 265 -422 278 l-65 5 83 -43 c148 -76 205 -149 271
-349 17 -52 33 -104 36 -115 6 -32 42 -126 64 -171 31 -63 29 -66 -38 -59 -79
9 -122 24 -240 90 -181 100 -260 126 -370 122 -68 -3 -189 -31 -179 -42 3 -2
34 -6 69 -9 104 -9 161 -24 214 -55 71 -41 123 -93 251 -250 34 -41 87 -99
118 -129 33 -31 54 -57 48 -63 -8 -8 -23 -13 -96 -28 -43 -9 -177 -6 -246 5
-136 22 -276 8 -365 -36 -41 -21 -154 -109 -138 -109 4 0 42 12 83 26 103 35
195 38 285 10 39 -13 145 -62 237 -109 92 -48 175 -87 185 -87 10 -1 28 -7 41
-14 l23 -12 -47 -42 c-62 -54 -90 -66 -235 -108 -195 -55 -269 -92 -344 -170
-39 -41 -112 -160 -103 -169 2 -2 25 16 52 41 143 129 230 152 481 129 55 -5
151 -10 213 -10 61 0 112 -4 112 -8 0 -20 -52 -106 -87 -142 -21 -22 -85 -78
-142 -124 -165 -136 -219 -213 -246 -353 -20 -106 -8 -111 41 -16 81 152 155
203 416 282 96 29 166 57 261 104 9 5 4 -106 -6 -148 -4 -13 -17 -45 -30 -70
-13 -25 -49 -94 -80 -155 -63 -122 -96 -234 -91 -310 3 -47 41 -191 49 -183 2
1 6 44 9 94 12 183 58 254 276 432 58 47 127 110 154 139 27 29 52 53 56 53 4
0 16 -29 25 -64 14 -51 16 -87 12 -168 -4 -57 -8 -116 -11 -133 -7 -41 -8
-193 -1 -230 14 -77 75 -195 125 -240 26 -23 25 -14 -5 75 -57 166 -30 289
119 545 19 33 47 95 62 138 l26 79 29 -28 c48 -46 76 -95 103 -181 14 -46 38
-120 52 -165 49 -155 111 -245 214 -310 57 -36 90 -51 90 -42 0 3 -26 38 -58
77 -117 143 -133 219 -102 492 12 102 14 219 5 267 l-5 27 37 -15 c75 -31 131
-82 230 -207 132 -169 237 -243 370 -262 126 -18 127 -17 15 41 -143 73 -201
148 -261 339 -60 191 -74 230 -98 277 -36 73 -33 77 40 72 54 -4 86 -17 238
-94 190 -96 263 -122 341 -122 60 1 154 19 188 38 l25 13 -25 1 c-244 9 -313
51 -520 311 -59 74 -131 148 -152 155 -11 3 -18 13 -16 22 7 37 171 56 308 37
36 -5 117 -9 180 -9 102 0 122 3 180 27 61 26 180 104 180 119 0 7 -16 5 -40
-5 -99 -41 -123 -45 -213 -42 -110 4 -162 22 -342 122 -66 36 -149 76 -185 87
-36 12 -65 25 -65 30 0 5 28 31 63 57 47 37 84 55 150 74 178 53 218 67 277
96 70 34 128 85 172 149 34 51 66 110 61 115 -2 2 -34 -24 -73 -57 -142 -122
-228 -141 -500 -112 -44 4 -126 8 -182 8 -115 0 -119 3 -81 65 32 52 92 114
183 189 117 96 200 184 229 244 28 58 49 152 44 200 -3 28 -6 25 -42 -47 -75
-148 -160 -213 -351 -270 -131 -39 -233 -75 -284 -101 -25 -12 -49 -20 -53
-18 -9 6 -1 84 13 138 6 21 29 73 52 115 129 241 152 309 144 430 -4 63 -34
188 -43 179 -1 -2 -5 -37 -8 -78 -9 -108 -16 -139 -44 -199 -25 -55 -122 -161
-211 -231 -89 -71 -141 -119 -194 -178 -15 -18 -31 -32 -36 -32 -15 0 -43 101
-45 162 -2 32 3 95 9 140 17 112 12 289 -8 353 -17 53 -55 116 -106 175 l-30
35 8 -30z"/>
</g>
</svg>
