<svg width="15" height="15" viewBox="0 0 15 15" fill="none" xmlns="http://www.w3.org/2000/svg">
<path d="M9.71875 8.125C10.1875 8.125 10.6 7.86875 10.8125 7.48125L13.05 3.425C13.1027 3.33027 13.1297 3.22342 13.1284 3.11503C13.1271 3.00665 13.0975 2.90048 13.0426 2.80704C12.9877 2.71359 12.9093 2.63611 12.8152 2.58226C12.7211 2.52841 12.6146 2.50005 12.5063 2.5H3.25625L2.66875 1.25H0.625V2.5H1.875L4.125 7.24375L3.28125 8.76875C2.825 9.60625 3.425 10.625 4.375 10.625H11.875V9.375H4.375L5.0625 8.125H9.71875ZM3.85 3.75H11.4437L9.71875 6.875H5.33125L3.85 3.75ZM4.375 11.25C3.6875 11.25 3.13125 11.8125 3.13125 12.5C3.13125 13.1875 3.6875 13.75 4.375 13.75C5.0625 13.75 5.625 13.1875 5.625 12.5C5.625 11.8125 5.0625 11.25 4.375 11.25ZM10.625 11.25C9.9375 11.25 9.38125 11.8125 9.38125 12.5C9.38125 13.1875 9.9375 13.75 10.625 13.75C11.3125 13.75 11.875 13.1875 11.875 12.5C11.875 11.8125 11.3125 11.25 10.625 11.25Z" fill="#300057"/>
</svg>
